<svg xmlns="http://www.w3.org/2000/svg" viewBox="0 0 48 48" width="24px" height="24px">
  <path fill="#039be5" d="M24,4C12.954,4,4,12.954,4,24c0,10.028,7.379,18.331,17.004,19.777v-14.5c-0.48,0.09-0.973,0.151-1.482,0.151c-2.329,0-3.802-1.698-4.323-3.219H11.01v-3.068c0-2.143,1.209-3.994,3.088-4.204h3.102v-4.536c0-0.731,0.59-1.32,1.32-1.32h5.522c0.73,0,1.32,0.589,1.32,1.32v4.536h3.102c1.88,0.211,3.088,2.062,3.088,4.204v3.068h-4.188c-0.52,1.521-1.993,3.219-4.323,3.219c-0.508,0-1.002-0.061-1.482-0.151v14.5C36.621,42.331,44,34.028,44,24C44,12.954,35.046,4,24,4z"/>
</svg>